<svg width="158" height="54" viewBox="0 0 158 54" fill="none" xmlns="http://www.w3.org/2000/svg">
<path d="M18.6354 0.67106C20.0421 -0.594769 22.1762 0.00766491 22.7345 1.82819L28.7904 21.5772C29.4242 23.644 27.5954 25.6793 25.6083 25.1183L4.29228 19.101C2.30526 18.5401 1.77824 15.8398 3.3753 14.4027L18.6354 0.67106Z" fill="#068D9D"/>
<path d="M8.8805 53.0797C7.42049 54.7715 4.80183 54.0085 4.44854 51.7884L0.0367492 24.0638C-0.279234 22.0781 1.49539 20.3781 3.32711 20.9118L25.971 27.5094C27.8027 28.0431 28.4184 30.4396 27.1126 31.9527L8.8805 53.0797Z" fill="#53599A"/>
<path d="M57.2316 21.2199V26.5986H39.8096V2.18222H45.7377V21.2199H57.2316Z" fill="#068D9D"/>
<path d="M69.9418 26.5986L69.5466 23.8385L68.8221 25.8201C67.5706 26.6694 66.0886 27.094 64.4748 27.094C61.5766 27.094 58.8431 25.1478 58.8431 21.503C58.8431 17.469 62.4 14.992 68.361 14.992H69.4808V14.7089C69.4808 14.3196 69.4808 13.9304 69.4149 13.3288C69.3161 12.3734 68.5915 11.5241 67.3071 11.5241C65.9239 11.5241 65.1335 12.4796 65.0347 14.1073L59.4359 14.1427C59.4688 9.71945 63.1245 7.20704 67.5706 7.20704C73.1364 7.20704 75.0466 9.861 75.3101 13.2934C75.3759 14.2489 75.4089 15.3458 75.4089 16.5136V21.8215C75.4089 23.2369 75.4747 24.5108 75.7382 26.5986H69.9418ZM66.9119 22.7769C68.0975 22.7769 69.4808 21.8215 69.4808 19.8399V18.6014C66.8131 18.389 64.9029 19.1321 64.9029 21.0076C64.9029 22.14 65.7263 22.7769 66.9119 22.7769Z" fill="#068D9D"/>
<path d="M97.4718 7.70245L90.5227 26.5986C88.3161 32.5789 86.406 34.0297 82.2234 34.0297C81.2683 34.0297 80.5767 33.9943 79.7204 33.8528V29.748C80.2144 29.8187 80.7413 29.8187 81.3341 29.8187C82.7174 29.8187 83.6725 29.3233 84.2323 27.9787L84.4629 27.4479L77.1845 7.70245H83.7713L87.394 21.5384L90.9838 7.70245H97.4718Z" fill="#068D9D"/>
<path d="M109.308 26.5986L108.913 23.8385L108.188 25.8201C106.937 26.6694 105.455 27.094 103.841 27.094C100.943 27.094 98.2094 25.1478 98.2094 21.503C98.2094 17.469 101.766 14.992 107.727 14.992H108.847V14.7089C108.847 14.3196 108.847 13.9304 108.781 13.3288C108.682 12.3734 107.958 11.5241 106.673 11.5241C105.29 11.5241 104.5 12.4796 104.401 14.1073L98.8023 14.1427C98.8352 9.71945 102.491 7.20704 106.937 7.20704C112.503 7.20704 114.413 9.861 114.676 13.2934C114.742 14.2489 114.775 15.3458 114.775 16.5136V21.8215C114.775 23.2369 114.841 24.5108 115.105 26.5986H109.308ZM106.278 22.7769C107.464 22.7769 108.847 21.8215 108.847 19.8399V18.6014C106.179 18.389 104.269 19.1321 104.269 21.0076C104.269 22.14 105.093 22.7769 106.278 22.7769Z" fill="#068D9D"/>
<path d="M136.015 12.338C136.147 13.2934 136.179 14.3904 136.179 15.912V26.5986H130.251V16.9736C130.251 16.372 130.251 15.3458 130.185 14.3904C130.054 12.5857 129.132 11.5241 127.353 11.5241C125.542 11.5241 124.257 13.3996 124.257 17.6813V26.5986H118.329V7.70245H124.257V10.6395L125.838 8.30401C126.925 7.59629 128.177 7.20704 129.79 7.20704C133.413 7.20704 135.554 9.04712 136.015 12.338Z" fill="#068D9D"/>
<path d="M158 7.70245V21.7861C158 22.9538 158 24.4047 157.967 25.4309C157.769 31.6234 153.817 34.3835 147.856 34.3835C142.587 34.3835 139.392 32.0835 138.964 27.7663L138.931 27.4125H144.662L144.695 27.7663C144.826 29.0049 146.177 29.7126 148.021 29.7126C150.228 29.7126 151.841 28.6864 152.006 26.1386C152.039 25.5724 152.072 24.6878 152.072 23.6616V23.1308L150.755 25.2186C149.767 25.997 148.383 26.3863 146.605 26.3863C141.829 26.3863 138.536 22.8831 138.536 17.2921C138.536 10.5687 142.356 7.20704 146.868 7.20704C148.317 7.20704 150.03 7.5609 150.919 8.12708L152.072 10.1441V7.70245H158ZM148.317 22.0692C150.491 22.0692 152.072 20.6537 152.072 16.6905V16.5844C152.072 12.798 150.261 11.5241 148.482 11.5241C146.177 11.5241 144.596 12.975 144.596 16.8321C144.596 20.3707 146.243 22.0692 148.317 22.0692Z" fill="#068D9D"/>
<path d="M44.3712 39.2742C46.3377 39.5383 47.7266 40.9513 47.7266 43.6718C47.7266 46.3526 46.2763 48.0166 44.3097 48.2807C43.8796 48.3335 43.6829 48.3335 43.2281 48.3335H40.7085V39.2214H43.2896C43.7444 39.2214 43.941 39.2214 44.3712 39.2742ZM44.1991 47.3431C45.6371 47.0921 46.5713 45.8244 46.5713 43.6718C46.5713 41.6513 45.6986 40.4627 44.2606 40.2118C43.9902 40.159 43.6706 40.1458 43.2281 40.1458H41.7655V47.4091H43.1667C43.6091 47.4091 43.9287 47.3959 44.1991 47.3431Z" fill="#53599A"/>
<path d="M50.7583 39.0365C51.1393 39.0365 51.4343 39.3534 51.4343 39.7628C51.4343 40.1722 51.1393 40.4891 50.7583 40.4891C50.3773 40.4891 50.0823 40.1722 50.0823 39.7628C50.0823 39.3534 50.3773 39.0365 50.7583 39.0365ZM51.2868 48.3335H50.2298V41.3343H51.2868V48.3335Z" fill="#53599A"/>
<path d="M59.976 41.3343V46.6167C59.976 47.0525 59.976 47.594 59.9637 47.9769C59.9023 50.0239 58.7469 51.1068 56.8664 51.1068C55.0105 51.1068 54.0887 50.2748 53.9535 48.7957L53.9412 48.6637H55.0105L55.0228 48.7825C55.1088 49.6409 55.7479 50.2352 56.8664 50.2352C58.157 50.2352 58.8575 49.4428 58.9067 48.0958C58.919 47.7657 58.919 47.5412 58.919 47.3299V47.211L58.4274 47.9637C58.0586 48.2939 57.3703 48.5184 56.7066 48.5184C54.8016 48.5184 53.7445 46.9865 53.7445 44.9396C53.7445 42.3512 55.244 41.1494 56.9279 41.1494C57.4687 41.1494 58.157 41.3211 58.4888 41.6116L58.919 42.2984V41.3343H59.976ZM56.8664 47.6468C57.948 47.6468 58.919 46.9073 58.919 44.8999V44.517C58.919 42.7077 57.862 42.021 56.9279 42.021C55.7848 42.021 54.8999 42.9719 54.8999 44.8075C54.8999 46.3922 55.5636 47.6468 56.8664 47.6468Z" fill="#53599A"/>
<path d="M63.5024 39.0365C63.8835 39.0365 64.1784 39.3534 64.1784 39.7628C64.1784 40.1722 63.8835 40.4891 63.5024 40.4891C63.1214 40.4891 62.8264 40.1722 62.8264 39.7628C62.8264 39.3534 63.1214 39.0365 63.5024 39.0365ZM64.031 48.3335H62.9739V41.3343H64.031V48.3335Z" fill="#53599A"/>
<path d="M68.2954 42.2587V46.2866C68.2954 46.5243 68.2954 46.6431 68.3077 46.828C68.3569 47.5015 68.615 47.6468 69.4385 47.5411V48.3731C69.1312 48.426 68.8362 48.4392 68.5412 48.4392C67.73 48.4392 67.3121 48.0826 67.2507 47.211C67.2384 47.0261 67.2384 46.7356 67.2384 46.3394V42.2587H66.3657V41.3871H67.2384V39.7628H68.2954V41.3871H69.5122V42.2587H68.2954Z" fill="#53599A"/>
<path d="M75.7456 48.3335L75.635 47.3299L75.2786 48.0826C74.8361 48.4127 74.2707 48.5184 73.6439 48.5184C72.464 48.5184 71.5421 47.8185 71.5421 46.5243C71.5421 44.9396 72.6483 44.1208 75.2048 44.1208H75.6227V43.9359C75.6227 43.6322 75.6227 43.3548 75.5981 43.0907C75.549 42.4436 75.2048 42.021 74.3322 42.021C73.4472 42.021 73.0047 42.5361 72.931 43.5001H71.8248C71.9232 42.0078 72.8941 41.1494 74.3322 41.1494C75.8808 41.1494 76.5322 41.8494 76.6428 42.9983C76.6674 43.2756 76.6797 43.619 76.6797 43.9227V46.5507C76.6797 47.0789 76.7043 47.5544 76.8026 48.3335H75.7456ZM74.0003 47.6468C74.9836 47.6468 75.6227 46.9469 75.6227 45.6791V44.966C73.8282 44.8207 72.6975 45.2301 72.6975 46.4318C72.6975 47.277 73.2014 47.6468 74.0003 47.6468Z" fill="#53599A"/>
<path d="M80.6734 38.6271V46.3262C80.6734 46.5375 80.6734 46.762 80.6857 46.9865C80.7103 47.4355 80.9069 47.5808 81.4846 47.5147V48.3335C81.2511 48.3731 80.9807 48.3863 80.7349 48.3863C80.1203 48.3863 79.6656 48.175 79.6287 47.2902C79.6164 47.0525 79.6164 46.7488 79.6164 46.3658V38.6271H80.6734Z" fill="#53599A"/>
<path d="M88.9851 48.3335H87.9281V39.2214H88.9851V48.3335Z" fill="#53599A"/>
<path d="M97.4579 43.1964C97.4825 43.5529 97.4824 43.8303 97.4824 44.3981V48.3335H96.4254V44.4774C96.4254 44.1208 96.4254 43.8303 96.4008 43.4737C96.3394 42.6549 95.9215 42.0474 94.9137 42.0474C93.8935 42.0474 93.0331 42.8662 93.0331 45.2565V48.3335H91.9761V41.3343H93.0331V42.5361L93.4387 41.7305C93.9918 41.2683 94.4712 41.1494 95.1349 41.1494C96.5606 41.1494 97.3595 41.9682 97.4579 43.1964Z" fill="#53599A"/>
<path d="M105.87 43.1964C105.895 43.5529 105.895 43.8303 105.895 44.3981V48.3335H104.838V44.4774C104.838 44.1208 104.838 43.8303 104.813 43.4737C104.752 42.6549 104.334 42.0474 103.326 42.0474C102.306 42.0474 101.446 42.8662 101.446 45.2565V48.3335H100.389V41.3343H101.446V42.5361L101.851 41.7305C102.404 41.2683 102.884 41.1494 103.547 41.1494C104.973 41.1494 105.772 41.9682 105.87 43.1964Z" fill="#53599A"/>
<path d="M111.493 41.1494C113.705 41.1494 114.725 42.853 114.725 44.8339C114.725 46.8016 113.705 48.5184 111.493 48.5184C109.281 48.5184 108.26 46.8016 108.26 44.8339C108.26 42.853 109.281 41.1494 111.493 41.1494ZM111.493 47.6468C112.808 47.6468 113.57 46.4715 113.57 44.8339C113.57 43.1832 112.808 42.021 111.493 42.021C110.178 42.021 109.416 43.1832 109.416 44.8339C109.416 46.4715 110.178 47.6468 111.493 47.6468Z" fill="#53599A"/>
<path d="M122.464 41.3343L119.994 48.3335H118.703L116.232 41.3343H117.4L119.391 47.5015L121.346 41.3343H122.464Z" fill="#53599A"/>
<path d="M128.306 48.3335L128.196 47.3299L127.839 48.0826C127.397 48.4127 126.832 48.5184 126.205 48.5184C125.025 48.5184 124.103 47.8185 124.103 46.5243C124.103 44.9396 125.209 44.1208 127.766 44.1208H128.184V43.9359C128.184 43.6322 128.184 43.3548 128.159 43.0907C128.11 42.4436 127.766 42.021 126.893 42.021C126.008 42.021 125.566 42.5361 125.492 43.5001H124.386C124.484 42.0078 125.455 41.1494 126.893 41.1494C128.442 41.1494 129.093 41.8494 129.204 42.9983C129.228 43.2756 129.241 43.619 129.241 43.9227V46.5507C129.241 47.0789 129.265 47.5544 129.363 48.3335H128.306ZM126.561 47.6468C127.544 47.6468 128.184 46.9469 128.184 45.6791V44.966C126.389 44.8207 125.258 45.2301 125.258 46.4318C125.258 47.277 125.762 47.6468 126.561 47.6468Z" fill="#53599A"/>
<path d="M133.492 42.2587V46.2866C133.492 46.5243 133.492 46.6431 133.505 46.828C133.554 47.5015 133.812 47.6468 134.635 47.5411V48.3731C134.328 48.426 134.033 48.4392 133.738 48.4392C132.927 48.4392 132.509 48.0826 132.448 47.211C132.435 47.0261 132.435 46.7356 132.435 46.3394V42.2587H131.563V41.3871H132.435V39.7628H133.492V41.3871H134.709V42.2587H133.492Z" fill="#53599A"/>
<path d="M137.735 39.0365C138.116 39.0365 138.411 39.3534 138.411 39.7628C138.411 40.1722 138.116 40.4891 137.735 40.4891C137.354 40.4891 137.059 40.1722 137.059 39.7628C137.059 39.3534 137.354 39.0365 137.735 39.0365ZM138.263 48.3335H137.206V41.3343H138.263V48.3335Z" fill="#53599A"/>
<path d="M143.953 41.1494C146.166 41.1494 147.186 42.853 147.186 44.8339C147.186 46.8016 146.166 48.5184 143.953 48.5184C141.741 48.5184 140.721 46.8016 140.721 44.8339C140.721 42.853 141.741 41.1494 143.953 41.1494ZM143.953 47.6468C145.268 47.6468 146.031 46.4715 146.031 44.8339C146.031 43.1832 145.268 42.021 143.953 42.021C142.638 42.021 141.876 43.1832 141.876 44.8339C141.876 46.4715 142.638 47.6468 143.953 47.6468Z" fill="#53599A"/>
<path d="M155.072 43.1964C155.096 43.5529 155.096 43.8303 155.096 44.3981V48.3335H154.039V44.4774C154.039 44.1208 154.039 43.8303 154.015 43.4737C153.953 42.6549 153.536 42.0474 152.528 42.0474C151.508 42.0474 150.647 42.8662 150.647 45.2565V48.3335H149.59V41.3343H150.647V42.5361L151.053 41.7305C151.606 41.2683 152.085 41.1494 152.749 41.1494C154.175 41.1494 154.974 41.9682 155.072 43.1964Z" fill="#53599A"/>
</svg>
